<?xml version="1.0" encoding="UTF-8"?><svg id="Layer_1" xmlns="http://www.w3.org/2000/svg" xmlns:xlink="http://www.w3.org/1999/xlink" viewBox="0 0 495.99 495.99"><defs><style>.cls-1{fill:#262781;}.cls-2{fill:#2a41c6;}.cls-3{fill:#0951c4;}.cls-4{fill:url(#linear-gradient-2);}.cls-5{fill:#27267f;}.cls-6{fill:url(#radial-gradient-7);}.cls-7{fill:#172d7d;}.cls-8{fill:#184dcd;}.cls-9{fill:#3630a7;}.cls-10{fill:#0e2f77;}.cls-11{fill:#112768;}.cls-12{fill:#1a389b;}.cls-13{fill:#0f46af;}.cls-14{fill:#144bc3;}.cls-15{fill:#0e4ab6;}.cls-16{fill:#21267a;}.cls-17{fill:#1057dc;}.cls-18{fill:#162467;}.cls-19{fill:#25339c;}.cls-20{fill:#372999;}.cls-21{fill:#2547cf;}.cls-22{fill:#233196;}.cls-23{fill:#0f4dbf;}.cls-24{fill:#15276d;}.cls-25{fill:#182b7a;}.cls-26{fill:#1f3dad;}.cls-27{fill:#2f2485;}.cls-28{fill:#1346b5;}.cls-29{fill:url(#radial-gradient-8);}.cls-30{fill:#0b3685;}.cls-31{fill:url(#linear-gradient-6);}.cls-32{fill:url(#radial-gradient-5);}.cls-33{fill:#1740a9;}.cls-34{fill:#192c7d;}.cls-35{fill:url(#radial-gradient-4);}.cls-36{fill:#0e56d7;}.cls-37{fill:#0e2969;}.cls-38{fill:#0b2e71;}.cls-39{fill:#202575;}.cls-40{fill:#1b318b;}.cls-41{fill:#272379;}.cls-42{fill:#173794;}.cls-43{fill:#2a2b8f;}.cls-44{fill:#3735b8;}.cls-45{fill:#1b3ca4;}.cls-46{fill:#1650d4;}.cls-47{fill:#272986;}.cls-48{fill:#32268b;}.cls-49{fill:#0b4cb7;}.cls-50{fill:#1a236a;}.cls-51{fill:#222475;}.cls-52{fill:#0b3279;}.cls-53{fill:#2e37b2;}.cls-54{fill:#0f388d;}.cls-55{fill:url(#linear-gradient-11);}.cls-56{fill:#112b70;}.cls-57{fill:#2d2381;}.cls-58{fill:#23277d;}.cls-59{fill:#222b86;}.cls-60{fill:#3338bc;}.cls-61{fill:#3931b0;}.cls-62{fill:#0b4fbf;}.cls-63{fill:url(#radial-gradient-6);}.cls-64{fill:#11296c;}.cls-65{fill:#242d8d;}.cls-66{fill:#1e389f;}.cls-67{fill:#172a75;}.cls-68{fill:#392da5;}.cls-69{fill:url(#linear-gradient-10);}.cls-70{fill:#302b96;}.cls-71{fill:#362896;}.cls-72{fill:#1244ac;}.cls-73{fill:#12378c;}.cls-74{fill:#1e2776;}.cls-75{fill:#19348f;}.cls-76{fill:#3537b8;}.cls-77{fill:url(#radial-gradient);}.cls-78{fill:#2a309a;}.cls-79{fill:#142a72;}.cls-80{fill:#1653da;}.cls-81{fill:#2543c3;}.cls-82{fill:#0a4ebc;}.cls-83{fill:#342892;}.cls-84{fill:#192974;}.cls-85{fill:#0c3889;}.cls-86{fill:#1c226a;}.cls-87{fill:#173da2;}.cls-88{fill:#09204d;}.cls-89{fill:#2b46d5;}.cls-90{fill:#0b3785;}.cls-91{fill:#0b4bb4;}.cls-92{fill:#132668;}.cls-93{fill:#192f84;}.cls-94{fill:#244ad7;}.cls-95{fill:#122e7b;}.cls-96{fill:url(#linear-gradient-5);}.cls-97{fill:#2636a5;}.cls-98{fill:#1e2b7f;}.cls-99{fill:#0c54cc;}.cls-100{fill:#1053d1;}.cls-101{fill:url(#radial-gradient-2);}.cls-102{fill:#1246b2;}.cls-103{fill:#1e226d;}.cls-104{fill:#0c2a69;}.cls-105{fill:#1b2773;}.cls-106{fill:#2a2f96;}.cls-107{fill:url(#radial-gradient-3);}.cls-108{fill:url(#linear-gradient-7);}.cls-109{fill:#1f308d;}.cls-110{fill:#293cb7;}.cls-111{fill:#0a52c5;}.cls-112{fill:#2a36a8;}.cls-113{fill:#2648d3;}.cls-114{fill:#0c409d;}.cls-115{fill:#232372;}.cls-116{fill:#2d40c7;}.cls-117{fill:#103d98;}.cls-118{fill:#0e4fc3;}.cls-119{fill:#0c47ad;}.cls-120{fill:url(#linear-gradient-9);}.cls-121{fill:#0c45a7;}.cls-122{fill:#1c40af;}.cls-123{fill:#35268f;}.cls-124{fill:#212a81;}.cls-125{fill:#0e4bba;}.cls-126{fill:#1b2268;}.cls-127{fill:#0b55ce;}.cls-128{fill:#153791;}.cls-129{fill:url(#linear-gradient-3);}.cls-130{fill:#123180;}.cls-131{fill:#333cc5;}.cls-132{fill:url(#linear-gradient);}.cls-133{fill:#0b48b0;}.cls-134{fill:#1d3089;}.cls-135{fill:#133ea1;}.cls-136{fill:#1b43b7;}.cls-137{fill:#2045c1;}.cls-138{fill:#1549bd;}.cls-139{fill:#3833b6;}.cls-140{fill:#1546b6;}.cls-141{fill:#312e9f;}.cls-142{fill:#174dca;}.cls-143{fill:url(#linear-gradient-4);}.cls-144{fill:#1e41b7;}.cls-145{fill:#1742af;}.cls-146{fill:#2c2584;}.cls-147{fill:url(#linear-gradient-8);}.cls-148{fill:#0c3b91;}.cls-149{fill:#0b50c4;}.cls-150{fill:#18338a;}.cls-151{fill:#0d3481;}.cls-152{fill:url(#linear-gradient-12);}</style><radialGradient id="radial-gradient" cx="-707.46" cy="795.53" fx="-707.46" fy="795.53" r=".6" gradientTransform="translate(166122.25 186629.76) scale(234.45 -234.36)" gradientUnits="userSpaceOnUse"><stop offset=".1" stop-color="#0df" stop-opacity=".4"/><stop offset=".9" stop-color="#7542e5" stop-opacity=".25"/></radialGradient><radialGradient id="radial-gradient-2" cx="-707.51" cy="795.26" fx="-707.51" fy="795.26" r=".51" gradientTransform="translate(166122.25 186629.76) scale(234.45 -234.36)" gradientUnits="userSpaceOnUse"><stop offset=".91" stop-color="#7542e5" stop-opacity="0"/><stop offset="1" stop-color="#0df" stop-opacity=".4"/></radialGradient><radialGradient id="radial-gradient-3" cx="-708.34" cy="796.4" fx="-708.34" fy="796.4" r="1.28" gradientTransform="translate(277039.8 311015.9) scale(390.52 -390.46)" gradientUnits="userSpaceOnUse"><stop offset="0" stop-color="#80ebff"/><stop offset=".26" stop-color="#0df"/><stop offset=".53" stop-color="#0090ed"/><stop offset=".86" stop-color="#0060df"/></radialGradient><radialGradient id="radial-gradient-4" cx="-708.73" cy="795.87" fx="-708.73" fy="795.87" r="1.28" gradientTransform="translate(277006.16 311015.9) scale(390.52 -390.46)" gradientUnits="userSpaceOnUse"><stop offset=".3" stop-color="#321c64" stop-opacity=".8"/><stop offset=".37" stop-color="#212f83" stop-opacity=".5"/><stop offset=".48" stop-color="#0a47ac" stop-opacity=".14"/><stop offset=".53" stop-color="#0250bb" stop-opacity="0"/></radialGradient><radialGradient id="radial-gradient-5" cx="-708.24" cy="796.74" fx="-708.24" fy="796.74" r="2.1" gradientTransform="translate(268069.97 300958.16) scale(377.93 -377.87)" gradientUnits="userSpaceOnUse"><stop offset="0" stop-color="#80ebff"/><stop offset=".47" stop-color="#00b3f4"/><stop offset=".84" stop-color="#0060df"/><stop offset="1" stop-color="#592acb"/></radialGradient><linearGradient id="linear-gradient" x1="-706.02" y1="796.22" x2="-705.83" y2="794.98" gradientTransform="translate(109125.45 258661.74) scale(154.06 -324.9)" gradientUnits="userSpaceOnUse"><stop offset="0" stop-color="#aaf2ff"/><stop offset=".29" stop-color="#0df"/><stop offset=".61" stop-color="#0090ed"/><stop offset=".89" stop-color="#0250bb"/></linearGradient><linearGradient id="linear-gradient-2" x1="-704.58" y1="795.54" x2="-704.33" y2="794.3" gradientTransform="translate(81575.68 155639.71) scale(115.38 -195.64)" gradientUnits="userSpaceOnUse"><stop offset="0" stop-color="#aaf2ff"/><stop offset=".29" stop-color="#0df"/><stop offset=".74" stop-color="#0090ed"/><stop offset="1" stop-color="#0250bb"/></linearGradient><radialGradient id="radial-gradient-6" cx="-696.93" cy="793.2" fx="-696.93" fy="793.2" r="3" gradientTransform="translate(41064.57 46501.66) scale(58.59 -58.58)" gradientUnits="userSpaceOnUse"><stop offset="0" stop-color="#0df"/><stop offset=".82" stop-color="#0090ed"/></radialGradient><radialGradient id="radial-gradient-7" cx="-705.05" cy="795.67" fx="-705.05" fy="795.67" r="3.13" gradientTransform="translate(112997.65 127249.8) scale(159.78 -159.77)" gradientUnits="userSpaceOnUse"><stop offset=".29" stop-color="#80ebff"/><stop offset="1" stop-color="#00b3f4"/></radialGradient><radialGradient id="radial-gradient-8" cx="-707.19" cy="795.95" fx="-707.19" fy="795.95" r="2.3" gradientTransform="translate(135821.87 152684.23) scale(191.74 -191.71)" gradientUnits="userSpaceOnUse"><stop offset=".18" stop-color="#aaf2ff"/><stop offset=".43" stop-color="#0df"/><stop offset=".69" stop-color="#0060df"/></radialGradient><linearGradient id="linear-gradient-3" x1="-708.68" y1="796.27" x2="-709.34" y2="795.58" gradientTransform="translate(340982.94 395003.92) scale(480.56 -495.97)" gradientUnits="userSpaceOnUse"><stop offset=".24" stop-color="#80ebff" stop-opacity=".5"/><stop offset=".7" stop-color="#0df" stop-opacity="0"/></linearGradient><linearGradient id="linear-gradient-4" x1="-704.03" y1="794.37" x2="-704.44" y2="792.78" gradientTransform="translate(77933.06 82810.46) scale(110.4 -104)" gradientUnits="userSpaceOnUse"><stop offset="0" stop-color="#bff3ff" stop-opacity=".9"/><stop offset="1" stop-color="#80ebff" stop-opacity=".5"/></linearGradient><linearGradient id="linear-gradient-5" x1="-706.23" y1="796.3" x2="-706.26" y2="794.89" gradientTransform="translate(116820.07 317568.89) scale(164.88 -398.81)" gradientUnits="userSpaceOnUse"><stop offset="0" stop-color="#bff3ff"/><stop offset="1" stop-color="#0df" stop-opacity="0"/></linearGradient><linearGradient id="linear-gradient-6" x1="-701.88" y1="794.73" x2="-701.93" y2="793.26" gradientTransform="translate(57622.36 97616.33) scale(81.69 -122.84)" gradientUnits="userSpaceOnUse"><stop offset="0" stop-color="#bff3ff"/><stop offset="1" stop-color="#aaf2ff" stop-opacity=".5"/></linearGradient><linearGradient id="linear-gradient-7" x1="-705.75" y1="795.5" x2="-705.81" y2="794.06" gradientTransform="translate(105429.22 149419.19) scale(148.93 -187.61)" gradientUnits="userSpaceOnUse"><stop offset="0" stop-color="#bff3ff"/><stop offset="1" stop-color="#0df" stop-opacity="0"/></linearGradient><linearGradient id="linear-gradient-8" x1="-706.52" y1="795.19" x2="-706.44" y2="793.94" gradientTransform="translate(124475.39 123998.93) scale(175.96 -155.69)" gradientUnits="userSpaceOnUse"><stop offset="0" stop-color="#bff3ff" stop-opacity=".8"/><stop offset="1" stop-color="#80ebff" stop-opacity=".2"/></linearGradient><linearGradient id="linear-gradient-9" x1="-697.36" y1="792.4" x2="-698.29" y2="790.89" gradientTransform="translate(39479.84 46620.71) scale(56.36 -58.73)" gradientUnits="userSpaceOnUse"><stop offset="0" stop-color="#bff3ff" stop-opacity=".8"/><stop offset="1" stop-color="#80ebff" stop-opacity=".2"/></linearGradient><linearGradient id="linear-gradient-10" x1="-706.13" y1="795.88" x2="-706.18" y2="794.5" gradientTransform="translate(114109.13 200995.75) scale(161.47 -252.26)" gradientUnits="userSpaceOnUse"><stop offset="0" stop-color="#0df" stop-opacity=".4"/><stop offset="1" stop-color="#0df" stop-opacity="0"/></linearGradient><linearGradient id="linear-gradient-11" x1="-707.51" y1="796.35" x2="-707.51" y2="795.24" gradientTransform="translate(166020.92 295591.05) scale(234.48 -371.14)" gradientUnits="userSpaceOnUse"><stop offset="0" stop-color="#bff3ff"/><stop offset="1" stop-color="#0df" stop-opacity="0"/></linearGradient><linearGradient id="linear-gradient-12" x1="-707.95" y1="796.3" x2="-708.01" y2="794.85" gradientTransform="translate(197365.75 311014.32) scale(278.28 -390.46)" gradientUnits="userSpaceOnUse"><stop offset="0" stop-color="#bff3ff" stop-opacity=".8"/><stop offset="1" stop-color="#0df" stop-opacity="0"/></linearGradient></defs><path id="globe-back" class="cls-88" d="M138.62,289.09l15.14,41.98,22.75,30.7,53.42,10.19,25.55,2.17,43.63-10.9,18.79-18.01-179.29-56.12h0Z"/><path class="cls-88" d="M364.68,227.17l-5.35-17.74-15.29-28.86-17.49-18.44-18.57-13.26-16.12-6.33-19.35-6.88-31.85-2.03-20.09,3.62-16.39,5.04-29.08,17.02-18.18,20.28-16.76,27.22-6.59,23.16-1.23,35.15,6.29,23.96,13.86,27.28,9.78,13.18,13.52,12.39,16.89,11.42,20.82,9.06,34.85,4.09,18.2,.51,26.93-7.58,24.07-13.21,15.49-13.21,12.01-14.33,16.98-33.23,3.75-22.73-1.06-35.55h0Z"/><path class="cls-36" d="M241.24,149.61l-14.27,14.15,23.27,9.43,17.31-21.47-26.32-2.12h0Z"/><path class="cls-100" d="M250.24,173.19l45.05-1.37-27.74-20.1-17.31,21.47h0Z"/><path class="cls-62" d="M291.95,151.58l-24.39,.15,27.74,20.1,25.65-1.68-29-18.58Z"/><path class="cls-133" d="M320.95,170.15l-14.58-20.11,20.18,12.09-5.6,8.02h0Z"/><path class="cls-121" d="M340.26,182.47l-19.31-12.32,5.6-8.02,13.71,20.33h0Z"/><path class="cls-13" d="M320.95,170.15l-3.23,13.78,17.66,7.06-14.43-20.84Z"/><path class="cls-119" d="M320.95,170.15l19.31,12.32-4.88,8.52-14.43-20.84h0Z"/><path class="cls-118" d="M295.29,171.83l25.65-1.68-3.23,13.78-22.42-12.1Z"/><path class="cls-142" d="M295.29,171.83l-20.27,18.35,26.09,12.77-5.82-31.12Z"/><path class="cls-46" d="M250.24,173.19l45.05-1.37-20.27,18.35-24.78-16.98Z"/><path class="cls-102" d="M317.72,183.93l12.27,23.79,5.4-16.73-17.66-7.06Z"/><path class="cls-135" d="M329.98,207.72l5.4-16.73,12.85,30.57-18.25-13.84Z"/><path class="cls-117" d="M335.38,190.99l19.59,14.35-6.74,16.22-12.85-30.57h0Z"/><path class="cls-90" d="M340.26,182.47l3.78-1.9,10.93,24.76-14.71-22.87Z"/><path class="cls-30" d="M354.97,205.33l4.36,4.09-15.29-28.86,10.93,24.76h0Z"/><path class="cls-148" d="M354.97,205.33l-14.71-22.87-4.88,8.52,19.59,14.34Zm-28.42-43.2l13.71,20.33,3.78-1.9-17.49-18.43Z"/><path class="cls-52" d="M363.7,241.03l-4.36-31.61,5.35,17.74-1.05,13.86h.07Z"/><path class="cls-54" d="M354.97,205.33l8.73,35.7-4.36-31.61-4.36-4.09Z"/><path class="cls-151" d="M348.23,221.56l15.46,19.48-8.73-35.7-6.74,16.22h0Z"/><path class="cls-38" d="M363.63,241.03l1.05-13.86,1.06,35.55-2.05-21.69h-.07Z"/><path class="cls-10" d="M361.11,269.13l4.64-6.41-2.05-21.69-2.59,28.1h0Z"/><path class="cls-37" d="M362,285.46l-3.71,1.79,7.46-24.52-3.75,22.73Z"/><path class="cls-104" d="M358.29,287.24l7.46-24.52-4.64,6.41-2.82,18.11Z"/><path class="cls-130" d="M361.11,269.13l2.59-28.1-7.95,9.37,5.35,18.73Z"/><path class="cls-56" d="M358.29,287.24l2.82-18.11-15.32,25.75,12.51-7.64Z"/><path class="cls-73" d="M348.23,221.56l15.46,19.48-7.95,9.37-7.52-28.85h0Z"/><path class="cls-95" d="M361.11,269.13l-5.35-18.73-8.08,23.06,13.43-4.34Z"/><path class="cls-64" d="M345.02,318.69l13.27-31.45-12.41,22.92-.86,8.52Z"/><path class="cls-79" d="M345.88,310.17l12.41-22.92-12.51,7.64,.09,15.28h0Z"/><path class="cls-11" d="M358.29,287.24l-13.27,31.45,16.98-33.24-3.71,1.79Zm-25.28,45.77l12.01-14.32,.86-8.52-12.86,22.84Zm-15.49,13.21l15.49-13.21-16.37,7.53,.88,5.68Z"/><path class="cls-86" d="M227.14,355.43l-15.65,3.83,.48-10.92,15.17,7.09h0Z"/><path class="cls-25" d="M140.16,206.82l4.31-1.6-10.91,24.76,6.59-23.16h0Z"/><path class="cls-109" d="M133.56,229.98l8.26-1.54,2.65-23.23-10.91,24.76Z"/><path class="cls-98" d="M134.06,259.72l-.49-29.74,8.26-1.54-7.76,31.27h0Z"/><path class="cls-28" d="M317.72,183.93l-16.61,19.02,28.87,4.77-12.27-23.79Zm-144.9-19.51l21.2-14.5-18.92,9.4-2.28,5.1Z"/><path class="cls-72" d="M175.09,159.32l29.08-17.02-10.17,7.62-18.92,9.4"/><path class="cls-15" d="M194.01,149.92l26.56-12.66-16.39,5.04-10.17,7.62Z"/><path class="cls-125" d="M295.3,171.83l5.82,31.12,16.61-19.02-22.42-12.1Zm-85.11-23.38l24.74-9.89-14.36-1.29-10.38,11.18Z"/><path class="cls-82" d="M240.65,133.64l-20.09,3.62,14.36,1.29,5.73-4.91Z"/><path class="cls-99" d="M259.65,138.31l-24.73,.25,5.73-4.91"/><path class="cls-91" d="M306.36,150.04l-14.42,1.53,29,18.58-14.58-20.11Zm-46.71-11.74l32.2,4.24-19.35-6.88-12.85,2.64Z"/><path class="cls-85" d="M306.36,150.04l-14.51-7.5,16.12,6.33-1.61,1.17Z"/><path class="cls-39" d="M138.62,289.09l9.52,7.83-14.08-37.2,4.56,29.37Zm131.39,73.99l8.37-19.7-30.5,8.19,22.13,11.51Zm8.37-19.7l25.5,7.08,1.55-19.72-27.05,12.64Z"/><path class="cls-105" d="M316.65,340.54l-11.22-9.81,27.11-18.02-15.89,27.83h0Z"/><path class="cls-24" d="M332.54,312.71l-15.89,27.83,16.37-7.53,12.86-22.85-13.34,2.55Z"/><path class="cls-114" d="M307.98,148.87l-1.61,1.17,20.18,12.09-18.57-13.26Zm-16.03,2.7l14.42-1.53-14.51-7.5,.09,9.03Z"/><path class="cls-49" d="M240.65,133.64l19,4.67,12.86-2.64-31.86-2.03Zm51.2,8.91l-32.2-4.24,32.3,13.27-.1-9.03Z"/><path class="cls-127" d="M259.65,138.31l7.9,13.42,24.39-.15-32.3-13.27Z"/><path class="cls-111" d="M259.65,138.31l7.9,13.42-26.32-2.12,18.41-11.3Z"/><path class="cls-3" d="M234.92,138.55l6.31,11.06,18.42-11.3-24.73,.25Z"/><path class="cls-149" d="M210.18,148.44l24.74-9.89,6.31,11.06-31.05-1.16Z"/><path class="cls-23" d="M194.01,149.92l16.17-1.47,10.38-11.18-26.56,12.66Zm16.17-1.47l16.79,15.32,14.27-14.15-31.05-1.16Z"/><path class="cls-140" d="M210.18,148.44l-27.33,25.62,11.15-24.15,16.17-1.47Z"/><path class="cls-138" d="M182.86,174.07l17.44,2.9,9.89-28.52-27.33,25.62h0Z"/><path class="cls-14" d="M200.29,176.97l9.89-28.52,16.79,15.32-26.68,13.21h0Z"/><path class="cls-42" d="M156.92,179.6l1.06,10.31,14.83-25.48-15.9,15.18h0Z"/><path class="cls-93" d="M144.47,205.22l12.45-25.62,1.06,10.31-13.51,15.32h0Z"/><path class="cls-12" d="M157.98,189.9l14.83-25.48,10.04,9.65-24.88,15.84h0Z"/><path class="cls-134" d="M157.08,212l.9-22.09-13.51,15.32,12.61,6.78h0Z"/><path class="cls-66" d="M157.08,212l.9-22.09,17.53,14.23-18.43,7.86h0Z"/><path class="cls-122" d="M175.51,204.13l7.35-30.07-24.88,15.84,17.53,14.23h0Z"/><path class="cls-144" d="M175.51,204.13l7.35-30.07,17.44,2.9-24.79,27.17Z"/><path class="cls-34" d="M141.82,228.44l2.65-23.23,12.61,6.78-15.26,16.45h0Z"/><path class="cls-18" d="M270.01,363.07l23.45-3.64,10.42-8.99-33.87,12.63Zm-137.68-97.95l1.73-5.41-.49-29.74-1.23,35.15Zm9.49-36.68l-7.76,31.27,14.08,37.2-6.87-43.1,.56-25.38Z"/><path class="cls-50" d="M148.14,296.92l11.62,1.63-8.13-18.99-3.48,17.36h0Z"/><path class="cls-92" d="M316.65,340.54l-12.77,9.9-10.42,8.99,24.07-13.21-.88-5.68Zm-68.31,25.97l18.2,.51,26.93-7.58-23.45,3.64-21.68,3.44Zm-89.36-48l12.21,2.35-11.43-22.3-.78,19.95Z"/><path class="cls-126" d="M211.98,348.33l-20.67-15.91-8.59,8.26,28.78,18.57,.48-10.92Zm-73.36-59.24l13.86,27.28-4.34-19.45-9.52-7.83Zm-6.29-23.96l6.29,23.96-4.56-29.37-1.73,5.41Zm115.55,86.44l-35.9-3.23,15.17,7.09-15.65,3.82-18.83-5.89,20.82,9.06,34.85,4.09,21.68-3.44-22.13-11.51Zm-88.13-53.01l-11.61-1.63,10.84,21.58,.78-19.96Zm-18.49-44.73l6.87,43.1,3.48-17.36-10.35-25.74Zm29.91,67.04l-12.21-2.35-6.49-2.14,9.78,13.18,13.52,12.39,16.89,11.42-9.95-12.68-11.54-19.83Z"/><path class="cls-124" d="M141.82,228.44l16.39,25.35-1.13-41.8-15.26,16.45h0Z"/><path class="cls-16" d="M141.27,253.82l10.35,25.75,6.59-25.77-16.95,.02h0Z"/><path class="cls-1" d="M151.62,279.57l6.59-25.77,8.19,20.36-14.79,5.41h0Z"/><path class="cls-41" d="M159.75,298.55l31.42,19.47-24.77-43.87-6.65,24.39h0Z"/><path class="cls-103" d="M152.48,316.37l6.49,2.14-10.84-21.58,4.34,19.45Zm69.41,11.2l-9.92,20.76,35.9,3.23-25.98-23.99Zm-62.14-29.02l11.43,22.3,11.54,19.83,8.59-8.26-.13-14.4-31.42-19.47Z"/><path class="cls-51" d="M305.42,330.73l-1.55,19.72,12.77-9.9-11.22-9.81Zm-54.93-2.83l-2.61,23.66,30.5-8.19-1.09-26.6-26.81,11.13Z"/><path class="cls-58" d="M141.27,253.82l16.94-.02-16.39-25.35-.55,25.38Zm136.03,62.95l1.09,26.6,27.04-12.64-28.13-13.96Z"/><path class="cls-74" d="M277.29,316.77l17.4-15.76,10.73,29.72-28.13-13.96Z"/><path class="cls-59" d="M305.42,330.73l13.16-39.84-23.88,10.12,10.73,29.72Z"/><path class="cls-84" d="M332.54,312.71l-27.11,18.02,13.16-39.84,13.96,21.83Z"/><path class="cls-67" d="M345.78,294.88l-27.2-4,13.96,21.83,13.34-2.55-.09-15.28h0Z"/><path class="cls-7" d="M347.67,273.47l-29.09,17.42,27.2,4,15.32-25.75-13.43,4.34h0Z"/><path class="cls-150" d="M144.47,205.22l12.45-25.62-16.76,27.22,4.31-1.6Zm192.35,31.71l10.85,36.54,8.08-23.06-18.93-13.47Z"/><path class="cls-128" d="M355.75,250.41l-7.52-28.85-11.41,15.37,18.93,13.48h0Z"/><path class="cls-40" d="M318.58,290.89l29.09-17.42-28.2-12.55-.9,29.97Z"/><path class="cls-65" d="M318.58,290.89l-26.37-26.64,2.49,36.76,23.88-10.12Z"/><path class="cls-43" d="M277.29,316.77l-20.24-17.92,37.65,2.16-17.4,15.76Z"/><path class="cls-5" d="M159.75,298.55l6.65-24.39-14.79,5.41,8.13,18.99Zm97.3,.29l-6.56,29.05,26.81-11.13-20.24-17.92Z"/><path class="cls-57" d="M215.15,304.79l-19.49-9.9-4.48,23.14,30.72,9.55,28.59,.33-35.34-23.11h0Z"/><path class="cls-27" d="M250.49,327.9l6.56-29.05-41.91,5.94,35.34,23.11Z"/><path class="cls-22" d="M158.21,253.8l8.41-26.83-9.54-14.97,1.13,41.8h0Z"/><path class="cls-110" d="M175.51,204.13l36.89-10.75-19.49,39.81-17.41-29.05Z"/><path class="cls-19" d="M318.58,290.89l-26.37-26.64,27.26-3.33-.9,29.97Z"/><path class="cls-75" d="M347.67,273.47l-10.85-36.54-17.35,23.99,28.2,12.55Z"/><path class="cls-78" d="M294.7,301.01l-30.15-29.15,27.67-7.61,2.49,36.76h0Z"/><path class="cls-70" d="M257.05,298.85l37.65,2.16-30.15-29.15-7.49,26.99h0Z"/><path class="cls-9" d="M257.05,298.85l-20.62-16.79,28.12-10.2-7.49,26.99h0Z"/><path class="cls-87" d="M172.81,164.42l2.28-5.1-18.18,20.28,15.9-15.18Zm157.17,43.3l6.84,29.21,11.41-15.37-18.25-13.84Z"/><path class="cls-112" d="M175.51,204.13l17.41,29.05-26.3-6.23,8.89-22.83Z"/><path class="cls-141" d="M166.62,226.96l26.3,6.23-17.78,28.01-8.51-34.24h0Z"/><path class="cls-8" d="M212.4,193.38l14.57-29.62-26.68,13.21,12.11,16.41Z"/><path class="cls-47" d="M158.21,253.8l16.92,7.4-8.73,12.96-8.19-20.36Z"/><path class="cls-146" d="M175.13,261.2l-8.73,12.96,24.77,43.86,4.48-23.14-20.53-33.68h0Z"/><path class="cls-48" d="M195.66,294.88l2.74-40.75-23.27,7.07,20.53,33.68h0Z"/><path class="cls-20" d="M195.66,294.88l40.77-12.83-38.03-27.92-2.74,40.75h0Z"/><path class="cls-68" d="M236.43,282.05l-3.97-31.51-34.05,3.59,38.03,27.92h0Z"/><path class="cls-60" d="M232.46,250.55l28.76-10.75,3.33,32.06-32.09-21.31h0Z"/><path class="cls-71" d="M215.15,304.79l41.91-5.94-20.62-16.79-21.28,22.73h0Z"/><path class="cls-123" d="M215.15,304.79l-19.49-9.9,40.77-12.83-21.28,22.73Z"/><path class="cls-113" d="M212.4,193.38l24.97,2.64-10.4-32.26-14.57,29.62h0Z"/><path class="cls-17" d="M250.24,173.19l-23.27-9.43,10.4,32.26,12.87-22.83h0Z"/><path class="cls-80" d="M250.24,173.19l24.78,16.98-37.65,5.85,12.87-22.83Z"/><path class="cls-89" d="M237.38,196.02l36.93,19.58-13.09,24.19-23.84-43.77h0Z"/><path class="cls-94" d="M274.31,215.61l.72-25.43-37.65,5.85,36.93,19.58h0Z"/><path class="cls-21" d="M274.31,215.61l.72-25.43,26.09,12.77-26.81,12.66Z"/><path class="cls-131" d="M237.38,196.02l23.84,43.77-41.81-20.94,17.97-22.83Z"/><path class="cls-139" d="M232.46,250.55l28.76-10.75-41.81-20.94,13.05,31.7h0Z"/><path class="cls-2" d="M261.21,239.79l36.88-6.74-23.78-17.45-13.09,24.19Z"/><path class="cls-137" d="M301.11,202.95l-3.02,30.11-23.78-17.45,26.81-12.66Z"/><path class="cls-136" d="M301.11,202.95l17.41,23.64-20.43,6.47,3.02-30.11Z"/><path class="cls-145" d="M329.98,207.72l-28.87-4.77,17.41,23.64,11.47-18.87h0Z"/><path class="cls-33" d="M182.86,174.07l11.15-24.15-21.2,14.5,10.05,9.65Zm147.13,33.65l-11.47,18.87,18.3,10.35-6.84-29.22Z"/><path class="cls-45" d="M319.48,260.92l17.35-23.99-18.3-10.34,.96,34.33h0Z"/><path class="cls-26" d="M319.48,260.92l-.96-34.33-20.43,6.47,21.39,27.86h0Z"/><path class="cls-81" d="M175.51,204.13l36.89-10.75-12.11-16.41-24.79,27.17Zm85.7,35.66l31,24.45,5.88-31.19-36.88,6.73Z"/><path class="cls-53" d="M264.55,271.85l27.67-7.61-31-24.45,3.33,32.06h0Z"/><path class="cls-116" d="M212.4,193.38l7,25.47,17.97-22.83-24.97-2.64h0Z"/><path class="cls-76" d="M212.4,193.38l-19.49,39.81,26.49-14.34-7-25.47h0Z"/><path class="cls-61" d="M219.4,218.85l-21,35.28,34.05-3.59-13.05-31.7h0Z"/><path class="cls-44" d="M232.46,250.55l3.97,31.51,28.12-10.2-32.09-21.31Zm-34.05,3.59l21-35.28-26.49,14.34,5.49,20.94Z"/><path class="cls-83" d="M175.13,261.2l17.78-28.01,5.49,20.94-23.27,7.07Z"/><path class="cls-115" d="M192.66,353.37l18.83,5.89-28.78-18.57,9.95,12.68Zm-1.36-20.94l20.67,15.91,9.92-20.76-30.72-9.55,.13,14.4Zm56.57,19.14l2.61-23.66-28.6-.33,25.99,23.99Zm30.5-8.19l-8.37,19.7,33.86-12.63-25.5-7.07Z"/><path class="cls-106" d="M158.21,253.8l8.41-26.83,8.51,34.24-16.92-7.4h0Z"/><path class="cls-97" d="M166.62,226.96l8.89-22.83-18.43,7.86,9.54,14.97Zm131.47,6.09l-5.88,31.19,27.26-3.33-21.39-27.86Z"/><path id="globe-lines" class="cls-77" d="M366.27,262.76v-.05l-1.06-35.55v-.04s0-.02,0-.04,0-.03-.01-.05h0l-5.35-17.75h0v-.04s-.02-.03-.03-.04v-.02l-15.3-28.86h0l-.02-.04-.02-.02h-.01l-.02-.03h-.01l-17.5-18.46h0v-.02s-.03-.02-.04-.03l-.02-.02-18.57-13.25h-.03s-.03-.03-.04-.03c-.01,0-.03-.01-.04-.02h0l-16.11-6.32h-.02l-19.34-6.88h-.05l-.03-.02h-.05l-31.85-2.03h-.05s-.03,0-.05,0h-.02l-20.09,3.62h-.08l-16.37,5.04h-.04s-.03,.03-.04,.03h-.03l-29.08,17.03h0l-.02,.02h-.02l-.02,.03h-.02l-.02,.04h-.02v.02l-18.18,20.27h0v.02l-.02,.02-.02,.02h0v.02l-16.78,27.2v.02l-.02,.03v.03s-.02,.02-.03,.04v.02l-6.6,23.17v.08s0,.03,0,.04h0l-1.23,35.16v.09s0,.03,0,.04v.04l6.28,23.95h0v.03s.02,.03,.03,.05c0,0,0,.02,0,.02l13.86,27.27h0s.02,.04,.03,.06h0l9.77,13.18v.02s.03,.02,.04,.03c0,0,.01,.02,.02,.02l13.52,12.4s.02,.02,.03,.03l.03,.02,16.88,11.42h.01l.04,.03h.03l20.82,9.07h.02s.03,.02,.05,.02h.08l34.85,4.1h.05l18.2,.51h.02s.07,0,.1-.01h.04l26.93-7.59h.04l.02-.02h.02l.03-.02h.01l24.06-13.21h.02s.03-.02,.04-.03l.03-.02,15.49-13.21,.02-.02,.02-.02,.02-.02h0l12.01-14.32h0s.03-.05,.04-.07l.02-.02h0l17.01-33.23s0-.02,.01-.02l.02-.04v-.02s0-.03,.01-.04c0,0,0-.02,0-.03l3.75-22.73v-.06Zm-190.15,78.78l-3.5-3.21,7.88,6.17-4.38-2.96Zm51.11,13.35l-12.31-5.75,29.13,2.62-16.82,3.13Zm4.49-104.78l-32.31,3.4,19.93-33.48,12.39,30.08Zm-11.28-30.15l39.48,19.77-27.15,10.15-12.32-29.93Zm11.57,31.17l3.76,29.78-35.95-26.4,32.19-3.38Zm3.29,30.74l-39.04,12.29,2.63-39.03,36.42,26.74Zm-2.16-30.24l30.26,20.1-26.52,9.62-3.75-29.72Zm.48-.94l27.16-10.15,3.15,30.28-30.3-20.12Zm41.72-34.97l25.17-11.88-2.84,28.27-22.33-16.39Zm21.47,17.06l-34.6,6.32,12.29-22.69,22.31,16.37Zm-35.58,5.93l-22.54-41.38,34.92,18.51-12.38,22.87Zm-1.26-.12l-39.74-19.9,17.08-21.7,22.65,41.6Zm-61.35,14.21l-5.06-19.33,24.44-13.23-19.38,32.56Zm-3.35,40.41l-19.31-31.69,21.89-6.65-2.58,38.34Zm39.43-10.04l-19.65,20.99-17.99-9.14,37.63-11.84Zm29.09-10.46l-7.01,25.23-19.28-15.7,26.29-9.53Zm-1.9-31.72l29.21,23.04-26.07,7.17-3.14-30.21Zm.59-.88l34.98-6.39-5.57,29.58-29.4-23.19Zm36.24-7.79l2.8-27.95,16.16,21.95-18.96,6.01Zm19.32-5.02l.89,32.01-19.94-25.98,19.05-6.04Zm-43.15-12.53l.67-23.76,24.37,11.94-25.04,11.82Zm-1.05-.02l-34.79-18.45,35.46-5.51-.68,23.96Zm-54.17,2.96l-6.52-23.72,23.26,2.46-16.74,21.26Zm-.85,.88l-24.67,13.36,18.15-37.08,6.52,23.73Zm-21.02,35.19l-21.43,6.51,16.38-25.79,5.05,19.28Zm-3.88,39.21l-26.76-18.95,7.98-11.85,18.77,30.81Zm2.16,2.69l17.98,9.14-22.12,12.22,4.14-21.36Zm40.43-12.9l19.31,15.73-39.24,5.56,19.93-21.29Zm28.34-9.92l28.5,27.56-35.58-2.05,7.08-25.51Zm.76-.73l26.16-7.2,2.35,34.76-28.51-27.56Zm32.82-37.8l20.11,26.2-25.63,3.13,5.52-29.33Zm20.68-6.81l16.98,9.6-16.09,22.25-.89-31.85Zm.18-1.11l10.52-17.3,6.27,26.79-16.79-9.49Zm-.77-.75l-16.17-21.96,26.83,4.43-10.66,17.53Zm-42.52-35.6l19-17.2,5.45,29.17-24.45-11.97Zm-37.59,5.3l12.05-21.39,23.22,15.91-35.27,5.48Zm-25.16-2.4l13.66-27.78,9.76,30.26-23.42-2.48Zm-20.34,39.15l-16.56-27.64,35.1-10.23-18.54,37.87Zm-17.52,27.79l-8.01-32.21,24.74,5.86-16.73,26.35Zm-8.82,13.16l-7.34-18.25,15.16,6.64-7.82,11.62Zm28.55,22.07l-4.15,21.4-22.91-40.57,27.06,19.17Zm19.75,10.45l6.28,21.22-28.6-8.89,22.32-12.33Zm41.54-6.09l-6.23,27.57-33.54-21.93,39.77-5.64Zm37.05,1.99l-16.12,14.6-18.76-16.61,34.88,2.01Zm-.58-35.84l24.83,25.09-22.49,9.53-2.34-34.62Zm.51-.98l25.59-3.12-.84,28.13-24.75-25.01Zm43.28-26.53l10.22,34.42-26.56-11.82,16.34-22.6Zm-5.79-29.09l16.67,12.64-10.42,14.04-6.25-26.69Zm-28.7-6.43l15.48-17.73,11.43,22.17-26.91-4.45Zm-.7-.8l-5.42-28.97,20.87,11.27-15.46,17.71Zm-26.45-12.28l-23.11-15.84,42.02-1.27-18.9,17.11Zm-37.47,5.21l-9.69-30.05,21.67,8.79-11.98,21.26Zm-25.2-2.34l-11.22-15.21,24.72-12.24-13.5,27.45Zm-.78,.71l-34.37,10.02,23.1-25.32,11.28,15.3Zm-19.71,39.3l-24.5-5.8,8.28-21.26,16.22,27.07Zm-17.46,27.9l-15.51-6.79,7.7-24.59,7.81,31.38Zm-8.65,13.56l-13.34,4.88,5.95-23.25,7.39,18.37Zm23.99,42.64l-29.35-18.18,6.21-22.78,23.13,40.96Zm29.88,10.91l-27.76,4.4-.12-13.07,27.88,8.67Zm-3.53-21.4l32.64,21.35-26.4-.3-6.24-21.05Zm41.31-6.18l18.95,16.78-25.09,10.43,6.14-27.2Zm37.1,2.1l10.01,27.75-26.26-13.03,16.24-14.72Zm.89-.63l22.35-9.48-12.32,37.3-10.04-27.82Zm24.61-39.58l26.56,11.82-27.4,16.4,.84-28.22Zm17.78-23.47l17.36,12.36-7.41,21.16-9.95-33.51Zm-.2-1.43l10.44-14.06,6.88,26.38-17.32-12.32Zm-6.96-29.29l4.85-15.02,11.54,27.45-16.39-12.43Zm-.73-1.17l-11.04-21.41,15.9,6.35-4.86,15.06Zm-32.71-34.12l23.12-1.51-2.91,12.42-20.21-10.91Zm-45.78,.4l16.28-20.19,26.09,18.9-42.37,1.29Zm-.96-.48l-8.38-21.95,24.5,1.97-16.12,19.98Zm-1.09,.1l-21.41-8.68,13.13-13.02,8.29,21.7Zm-48.11,3.67l9.21-26.56,15.63,14.26-24.84,12.3Zm-24.7,26.33l6.74-27.59,16,2.66-22.74,24.93Zm-10.01,23.55l-8.65-13.57,16.71-7.13-8.06,20.7Zm-.46,1.23l-7.39,23.59-.99-36.74,8.38,13.16Zm-8.51,27.28l-6.03,23.56-9.46-23.53,15.49-.02Zm-15.73-1.03l.5-23.13,14.94,23.1-15.44,.03Zm23.82,21.71l-5.99,21.96-7.32-17.09,13.31-4.87Zm24.04,42.71l-18.19,2.58-10.4-20.29,28.58,17.71Zm.99,.92l.12,12.88-18-10.35,17.88-2.53Zm30.33,9.62l-9.21,19.27-19.18-14.76,28.39-4.51Zm1.07,.2l24.33,22.46-33.61-3.02,9.28-19.43Zm1.19-.33l26.65,.3-2.43,22.05-24.22-22.35Zm53.54-10.57l1.02,24.91-26.12-14.49,25.1-10.42Zm1.06,.09l26.36,13.08-25.34,11.85-1.02-24.93Zm40.88-25.53l13.08,20.46-25.42,16.89,12.33-37.35Zm.91-.53l25.19,3.7-12.26,16.52-12.93-20.22Zm.47-.99l26.95-16.13-1.75,19.83-25.19-3.7Zm35.59-38.44l4.76,16.65-11.94,3.86,7.18-20.5Zm-6.33-28.31l13.65,17.19-7.01,8.27-6.64-25.46Zm-12.77-31.3l17.72,12.98-6.09,14.68-11.63-27.65Zm-18.27-8.93l2.86-12.18,12.77,18.43-15.62-6.24Zm-22.6-12.34l-3.08-18.62,26.66,17.08-23.58,1.54Zm-1.17-.62l-25.4-18.41,22.34-.14,3.06,18.55Zm-51.68-21.44l16.59-10.18,7.12,12.09-23.7-1.91Zm-15.93,13.82l-15.35-14.02,28.41,1.07-13.06,12.95Zm-27.01,13.34l-15.94-2.66,24.99-23.44-9.06,26.09Zm-24.74,26.82l-16.32-13.25,23.16-14.74-6.84,27.99Zm-.69,.79l-16.86,7.2,.82-20.21,16.04,13.02Zm-16.87,47.94l-15.15-23.43,14.1-15.2,1.05,38.63Zm-6.56,27.68l-2.88,14.33-5.67-35.6,8.55,21.27Zm.73,1.71l7.1,16.57-10.14-1.42,3.04-15.15Zm18.42,38.81l-10.7-2.06,.68-17.5,10.02,19.56Zm20.22,12.39l-7.6,7.31-10.21-17.55,17.81,10.24Zm.91,.59l18.26,14.05-25.85-6.76,7.59-7.3Zm59.58-4.38l26.07,14.46-28.5,7.66,2.43-22.11Zm53.9,2.85l-1.43,18.18-23.5-6.52,24.93-11.66Zm26.15-17.21l-14.47,25.34-10.22-8.93,24.69-16.41Zm14.29-17.92l.08,13.27-11.58,2.21,11.5-15.48Zm2.9-22.6l11.77-3.8-13.43,22.57,1.66-18.77Zm8.17-23.33l6.68-7.88-2.18,23.64-4.5-15.75Zm-7.5-29.06l6-14.45,7.78,31.81-13.78-17.35Zm-12.76-30.63l4.22-7.36,12.71,19.76-16.93-12.4Zm-.73-.84l-12.47-18,16.69,10.64-4.22,7.36Zm-41.85-38.06l12.63-1.35,12.77,17.61-25.4-16.26Zm-25.64-.74l-6.96-11.81,28.43,11.68-21.47,.13Zm-26.43-2.32l-5.6-9.81,21.94-.22-16.34,10.03Zm-1.11,.17l-27.63-1.04,22.01-8.8,5.62,9.84Zm-55.84,22.79l9.89-21.42,14.35-1.31-24.24,22.73Zm-1.78,1.34l-9.04-8.69,19.09-13.06-10.04,21.75Zm-.68,.81l-22.49,14.32,13.41-23.04,9.08,8.72Zm-25.42,37.15l-11.29-6.07,12.09-13.71-.8,19.77Zm-.36,1l-13.71,14.77,2.38-20.86,11.33,6.09Zm-15.49,41.43l-5.79,4.74,6.24-25.14-.45,20.4Zm.15,1.24l5.92,37.11-12.12-32.03,6.21-5.08Zm18.32,44.2l-.68,17.44-9.47-18.86,10.15,1.42Zm11.64,22.32l9.62,16.54-19.8-18.5,10.18,1.96Zm40.58,27.41l-.42,9.58-25.25-16.29,25.67,6.71Zm1.04,.41l13.1,6.13-13.52,3.31,.42-9.43Zm34.9,3.05l.41,13.44-19.04-9.96,18.64-3.47Zm30.1-8.04l-7.73,18.19-20.43-10.62,28.15-7.56Zm1.21-.16l23.49,6.52-31.2,11.64,7.71-18.15Zm27.18-12.18l9.95,8.7-11.32,8.79,1.36-17.49Zm27.01-18.63l11.48-2.19-25.15,26.14,13.67-23.94Zm13.51-5.07l-.08-12.93,10.58-6.47-10.51,19.4Zm.93-14.78l12.85-21.59-2.36,15.18-10.49,6.41Zm16.39-46.63l1.5,15.88-3.39,4.69,1.89-20.57Zm-7.8-39.77l2.94,2.75,2.94,21.26-5.87-24.02Zm-14.88-24.26l2.76-1.39,7.99,18.1-10.75-16.71Zm-19.32-12.67l4.85-6.94,11.87,17.6-16.72-10.66Zm-.75-.76l-12.65-17.43,17.5,10.48-4.85,6.95Zm-28.48-18.25l-.08-7.58,12.18,6.29-12.1,1.29Zm-1.05-.21l-27.83-11.43,27.75,3.65,.08,7.78Zm-55.05-12.77l4.43-3.8,14.69,3.61-19.12,.19Zm-24.2,9.08l8.62-9.28,11.91,1.07-20.53,8.21Zm-2.23,.85l-13.05,1.19,21.42-10.21-8.38,9.02Zm-35.88,14.99l1.44-3.23,11.97-5.95-13.42,9.18Zm-15.72,25.31l-.87-8.44,13.03-12.43-12.16,20.88Zm-.9,1.49l-10.8,12.24,9.95-20.49,.85,8.24Zm-16.09,38.27l-6.9,1.28,9.11-20.68-2.21,19.39Zm-.23,1.11l-6.6,26.57-.42-25.27,7.02-1.31Zm5.83,66.15l-7.84-6.45-3.75-24.18,11.59,30.63Zm10.99,22.35l-5.01-1.65-3.35-14.99,8.36,16.64Zm21.4,20.63l-16.63-9.05-2.67-8.98,19.3,18.03Zm3.03,2.85l7.2,9.18-22.01-17.24,14.82,8.06Zm2.69,1.73l22.9,14.77-14.99-4.68-7.91-10.09Zm42.01,13.16l17.8,9.31-30.94-6.1,13.14-3.21Zm21.36-3.54l19.92,10.36-19.51,3.1-.41-13.46Zm52.88-.48l-8.09,6.98-18.2,2.83,26.29-9.8Zm14.95-10.46l.67,4.35-10.45,3.24,9.78-7.59Zm27.13-28l-10.75,19.1-13.68,6.29,24.44-25.39Zm3-3.18l7.2-13.3-7.7,18.24,.5-4.94Zm15.22-40.99l2.72-3.76-4.37,14.37,1.65-10.61Zm2.61-28.34v-.03l-.04-.28,.27-3.56,.28,9.22-.51-5.35Zm-.72-5.24l-2.72-19.7,3.37,11.18-.65,8.52Zm-8.09-30.73l-4.96-11.25,6.95,13.11-1.98-1.86Zm-14.97-23.23l-9.92-14.7,12.65,13.33-2.73,1.37Zm-33.12-31.79l.66-.48,7.62,5.44-8.29-4.96Zm-1-.57l-5.15-2.66,5.73,2.25-.57,.41Zm-43.51-11.24l9.66-1.99,14.53,5.17-24.19-3.18Zm-3.15-.43l-13.15-3.23,22.05,1.4-8.9,1.83Zm-24.91,.24l-10.26-.92,14.35-2.59-4.09,3.51Zm-36.2,9.16l5.87-4.4,9.46-2.91-15.33,7.31Zm-4.82,2.3l-5.09,2.53,7.83-4.58-2.74,2.05Zm-21.36,14.64l-6.04,5.77,6.9-7.7-.87,1.93Zm-28.29,40.69l-2.68,1,10.43-16.94-7.75,15.94Zm-3.5,2.42l2.9-1.07-7.33,16.64,4.43-15.56Zm-7.21,43.17l.15,9.26-.53,1.68,.38-10.94Zm.5,11.63l2.64,17.02-3.64-13.89,1-3.13Zm13.78,35.21l3.39,15.19-10.82-21.31,7.43,6.12Zm10.89,21.71l2.35,7.92-7-9.45,4.65,1.53Zm52.61,40.77l.98,1.57-10.29-4.47,9.3,2.9Zm2.64,2.23l-1.21-1.93,22.39,4.41-21.18-2.49Zm54.85,1.89l-2.35,2.67-12.29-.34,14.64-2.33Zm1.63-.26l14.65-2.27-16.83,4.74,2.18-2.46Zm33.86-12.65l8.59-2.66-15.15,8.32,6.56-5.66Zm13.77-5.7l-.67-4.36,12.56-5.77-11.88,10.14Zm27.2-32.6l-.59,5.86-8.26,9.85,8.85-15.71Zm13.6-24.99l2.12-1.02-9.71,19.01,7.59-17.99Zm2.83-2.53l-2.38,1.15,4.79-15.74-2.41,14.6Z"/><path id="globe-lines-edge" class="cls-101" d="M366.27,262.76v-.05l-1.06-35.55v-.04s0-.02,0-.04,0-.03-.01-.05h0l-5.35-17.75h0v-.04s-.02-.03-.03-.04v-.02l-15.3-28.86h0l-.02-.04-.02-.02h-.01l-.02-.03h-.01l-17.5-18.46h0v-.02s-.03-.02-.04-.03l-.02-.02-18.57-13.25h-.03s-.03-.03-.04-.03c-.01,0-.03-.01-.04-.02h0l-16.11-6.32h-.02l-19.34-6.88h-.05l-.03-.02h-.05l-31.85-2.03h-.05s-.03,0-.05,0h-.02l-20.09,3.62h-.08l-16.37,5.04h-.04s-.03,.03-.04,.03h-.03l-29.08,17.03h0l-.02,.02h-.02l-.02,.03h-.02l-.02,.04h-.02v.02l-18.18,20.27h0v.02l-.02,.02-.02,.02h0v.02l-16.78,27.2v.02l-.02,.03v.03s-.02,.02-.03,.04v.02l-6.6,23.17v.08s0,.03,0,.04h0l-1.23,35.16v.09s0,.03,0,.04v.04l6.28,23.95h0v.03s.02,.03,.03,.05c0,0,0,.02,0,.02l13.86,27.27h0s.02,.04,.03,.06h0l9.77,13.18v.02s.03,.02,.04,.03c0,0,.01,.02,.02,.02l13.52,12.4s.02,.02,.03,.03l.03,.02,16.88,11.42h.01l.04,.03h.03l20.82,9.07h.02s.03,.02,.05,.02h.08l34.85,4.1h.05l18.2,.51h.02s.07,0,.1-.01h.04l26.93-7.59h.04l.02-.02h.02l.03-.02h.01l24.06-13.21h.02s.03-.02,.04-.03l.03-.02,15.49-13.21,.02-.02,.02-.02,.02-.02h0l12.01-14.32h0s.03-.05,.04-.07l.02-.02h0l17.01-33.23s0-.02,.01-.02l.02-.04v-.02s0-.03,.01-.04c0,0,0-.02,0-.03l3.75-22.73v-.06Zm-190.15,78.78l-3.5-3.21,7.88,6.17-4.38-2.96Zm51.11,13.35l-12.31-5.75,29.13,2.62-16.82,3.13Zm4.49-104.78l-32.31,3.4,19.93-33.48,12.39,30.08Zm-11.28-30.15l39.48,19.77-27.15,10.15-12.32-29.93Zm11.57,31.17l3.76,29.78-35.95-26.4,32.19-3.38Zm3.29,30.74l-39.04,12.29,2.63-39.03,36.42,26.74Zm-2.16-30.24l30.26,20.1-26.52,9.62-3.75-29.72Zm.48-.94l27.16-10.15,3.15,30.28-30.3-20.12Zm41.72-34.97l25.17-11.88-2.84,28.27-22.33-16.39Zm21.47,17.06l-34.6,6.32,12.29-22.69,22.31,16.37Zm-35.58,5.93l-22.54-41.38,34.92,18.51-12.38,22.87Zm-1.26-.12l-39.74-19.9,17.08-21.7,22.65,41.6Zm-61.35,14.21l-5.06-19.33,24.44-13.23-19.38,32.56Zm-3.35,40.41l-19.31-31.69,21.89-6.65-2.58,38.34Zm39.43-10.04l-19.65,20.99-17.99-9.14,37.63-11.84Zm29.09-10.46l-7.01,25.23-19.28-15.7,26.29-9.53Zm-1.9-31.72l29.21,23.04-26.07,7.17-3.14-30.21Zm.59-.88l34.98-6.39-5.57,29.58-29.4-23.19Zm36.24-7.79l2.8-27.95,16.16,21.95-18.96,6.01Zm19.32-5.02l.89,32.01-19.94-25.98,19.05-6.04Zm-43.15-12.53l.67-23.76,24.37,11.94-25.04,11.82Zm-1.05-.02l-34.79-18.45,35.46-5.51-.68,23.96Zm-54.17,2.96l-6.52-23.72,23.26,2.46-16.74,21.26Zm-.85,.88l-24.67,13.36,18.15-37.08,6.52,23.73Zm-21.02,35.19l-21.43,6.51,16.38-25.79,5.05,19.28Zm-3.88,39.21l-26.76-18.95,7.98-11.85,18.77,30.81Zm2.16,2.69l17.98,9.14-22.12,12.22,4.14-21.36Zm40.43-12.9l19.31,15.73-39.24,5.56,19.93-21.29Zm28.34-9.92l28.5,27.56-35.58-2.05,7.08-25.51Zm.76-.73l26.16-7.2,2.35,34.76-28.51-27.56Zm32.82-37.8l20.11,26.2-25.63,3.13,5.52-29.33Zm20.68-6.81l16.98,9.6-16.09,22.25-.89-31.85Zm.18-1.11l10.52-17.3,6.27,26.79-16.79-9.49Zm-.77-.75l-16.17-21.96,26.83,4.43-10.66,17.53Zm-42.52-35.6l19-17.2,5.45,29.17-24.45-11.97Zm-37.59,5.3l12.05-21.39,23.22,15.91-35.27,5.48Zm-25.16-2.4l13.66-27.78,9.76,30.26-23.42-2.48Zm-20.34,39.15l-16.56-27.64,35.1-10.23-18.54,37.87Zm-17.52,27.79l-8.01-32.21,24.74,5.86-16.73,26.35Zm-8.82,13.16l-7.34-18.25,15.16,6.64-7.82,11.62Zm28.55,22.07l-4.15,21.4-22.91-40.57,27.06,19.17Zm19.75,10.45l6.28,21.22-28.6-8.89,22.32-12.33Zm41.54-6.09l-6.23,27.57-33.54-21.93,39.77-5.64Zm37.05,1.99l-16.12,14.6-18.76-16.61,34.88,2.01Zm-.58-35.84l24.83,25.09-22.49,9.53-2.34-34.62Zm.51-.98l25.59-3.12-.84,28.13-24.75-25.01Zm43.28-26.53l10.22,34.42-26.56-11.82,16.34-22.6Zm-5.79-29.09l16.67,12.64-10.42,14.04-6.25-26.69Zm-28.7-6.43l15.48-17.73,11.43,22.17-26.91-4.45Zm-.7-.8l-5.42-28.97,20.87,11.27-15.46,17.71Zm-26.45-12.28l-23.11-15.84,42.02-1.27-18.9,17.11Zm-37.47,5.21l-9.69-30.05,21.67,8.79-11.98,21.26Zm-25.2-2.34l-11.22-15.21,24.72-12.24-13.5,27.45Zm-.78,.71l-34.37,10.02,23.1-25.32,11.28,15.3Zm-19.71,39.3l-24.5-5.8,8.28-21.26,16.22,27.07Zm-17.46,27.9l-15.51-6.79,7.7-24.59,7.81,31.38Zm-8.65,13.56l-13.34,4.88,5.95-23.25,7.39,18.37Zm23.99,42.64l-29.35-18.18,6.21-22.78,23.13,40.96Zm29.88,10.91l-27.76,4.4-.12-13.07,27.88,8.67Zm-3.53-21.4l32.64,21.35-26.4-.3-6.24-21.05Zm41.31-6.18l18.95,16.78-25.09,10.43,6.14-27.2Zm37.1,2.1l10.01,27.75-26.26-13.03,16.24-14.72Zm.89-.63l22.35-9.48-12.32,37.3-10.04-27.82Zm24.61-39.58l26.56,11.82-27.4,16.4,.84-28.22Zm17.78-23.47l17.36,12.36-7.41,21.16-9.95-33.51Zm-.2-1.43l10.44-14.06,6.88,26.38-17.32-12.32Zm-6.96-29.29l4.85-15.02,11.54,27.45-16.39-12.43Zm-.73-1.17l-11.04-21.41,15.9,6.35-4.86,15.06Zm-32.71-34.12l23.12-1.51-2.91,12.42-20.21-10.91Zm-45.78,.4l16.28-20.19,26.09,18.9-42.37,1.29Zm-.96-.48l-8.38-21.95,24.5,1.97-16.12,19.98Zm-1.09,.1l-21.41-8.68,13.13-13.02,8.29,21.7Zm-48.11,3.67l9.21-26.56,15.63,14.26-24.84,12.3Zm-24.7,26.33l6.74-27.59,16,2.66-22.74,24.93Zm-10.01,23.55l-8.65-13.57,16.71-7.13-8.06,20.7Zm-.46,1.23l-7.39,23.59-.99-36.74,8.38,13.16Zm-8.51,27.28l-6.03,23.56-9.46-23.53,15.49-.02Zm-15.73-1.03l.5-23.13,14.94,23.1-15.44,.03Zm23.82,21.71l-5.99,21.96-7.32-17.09,13.31-4.87Zm24.04,42.71l-18.19,2.58-10.4-20.29,28.58,17.71Zm.99,.92l.12,12.88-18-10.35,17.88-2.53Zm30.33,9.62l-9.21,19.27-19.18-14.76,28.39-4.51Zm1.07,.2l24.33,22.46-33.61-3.02,9.28-19.43Zm1.19-.33l26.65,.3-2.43,22.05-24.22-22.35Zm53.54-10.57l1.02,24.91-26.12-14.49,25.1-10.42Zm1.06,.09l26.36,13.08-25.34,11.85-1.02-24.93Zm40.88-25.53l13.08,20.46-25.42,16.89,12.33-37.35Zm.91-.53l25.19,3.7-12.26,16.52-12.93-20.22Zm.47-.99l26.95-16.13-1.75,19.83-25.19-3.7Zm35.59-38.44l4.76,16.65-11.94,3.86,7.18-20.5Zm-6.33-28.31l13.65,17.19-7.01,8.27-6.64-25.46Zm-12.77-31.3l17.72,12.98-6.09,14.68-11.63-27.65Zm-18.27-8.93l2.86-12.18,12.77,18.43-15.62-6.24Zm-22.6-12.34l-3.08-18.62,26.66,17.08-23.58,1.54Zm-1.17-.62l-25.4-18.41,22.34-.14,3.06,18.55Zm-51.68-21.44l16.59-10.18,7.12,12.09-23.7-1.91Zm-15.93,13.82l-15.35-14.02,28.41,1.07-13.06,12.95Zm-27.01,13.34l-15.94-2.66,24.99-23.44-9.06,26.09Zm-24.74,26.82l-16.32-13.25,23.16-14.74-6.84,27.99Zm-.69,.79l-16.86,7.2,.82-20.21,16.04,13.02Zm-16.87,47.94l-15.15-23.43,14.1-15.2,1.05,38.63Zm-6.56,27.68l-2.88,14.33-5.67-35.6,8.55,21.27Zm.73,1.71l7.1,16.57-10.14-1.42,3.04-15.15Zm18.42,38.81l-10.7-2.06,.68-17.5,10.02,19.56Zm20.22,12.39l-7.6,7.31-10.21-17.55,17.81,10.24Zm.91,.59l18.26,14.05-25.85-6.76,7.59-7.3Zm59.58-4.38l26.07,14.46-28.5,7.66,2.43-22.11Zm53.9,2.85l-1.43,18.18-23.5-6.52,24.93-11.66Zm26.15-17.21l-14.47,25.34-10.22-8.93,24.69-16.41Zm14.29-17.92l.08,13.27-11.58,2.21,11.5-15.48Zm2.9-22.6l11.77-3.8-13.43,22.57,1.66-18.77Zm8.17-23.33l6.68-7.88-2.18,23.64-4.5-15.75Zm-7.5-29.06l6-14.45,7.78,31.81-13.78-17.35Zm-12.76-30.63l4.22-7.36,12.71,19.76-16.93-12.4Zm-.73-.84l-12.47-18,16.69,10.64-4.22,7.36Zm-41.85-38.06l12.63-1.35,12.77,17.61-25.4-16.26Zm-25.64-.74l-6.96-11.81,28.43,11.68-21.47,.13Zm-26.43-2.32l-5.6-9.81,21.94-.22-16.34,10.03Zm-1.11,.17l-27.63-1.04,22.01-8.8,5.62,9.84Zm-55.84,22.79l9.89-21.42,14.35-1.31-24.24,22.73Zm-1.78,1.34l-9.04-8.69,19.09-13.06-10.04,21.75Zm-.68,.81l-22.49,14.32,13.41-23.04,9.08,8.72Zm-25.42,37.15l-11.29-6.07,12.09-13.71-.8,19.77Zm-.36,1l-13.71,14.77,2.38-20.86,11.33,6.09Zm-15.49,41.43l-5.79,4.74,6.24-25.14-.45,20.4Zm.15,1.24l5.92,37.11-12.12-32.03,6.21-5.08Zm18.32,44.2l-.68,17.44-9.47-18.86,10.15,1.42Zm11.64,22.32l9.62,16.54-19.8-18.5,10.18,1.96Zm40.58,27.41l-.42,9.58-25.25-16.29,25.67,6.71Zm1.04,.41l13.1,6.13-13.52,3.31,.42-9.43Zm34.9,3.05l.41,13.44-19.04-9.96,18.64-3.47Zm30.1-8.04l-7.73,18.19-20.43-10.62,28.15-7.56Zm1.21-.16l23.49,6.52-31.2,11.64,7.71-18.15Zm27.18-12.18l9.95,8.7-11.32,8.79,1.36-17.49Zm27.01-18.63l11.48-2.19-25.15,26.14,13.67-23.94Zm13.51-5.07l-.08-12.93,10.58-6.47-10.51,19.4Zm.93-14.78l12.85-21.59-2.36,15.18-10.49,6.41Zm16.39-46.63l1.5,15.88-3.39,4.69,1.89-20.57Zm-7.8-39.77l2.94,2.75,2.94,21.26-5.87-24.02Zm-14.88-24.26l2.76-1.39,7.99,18.1-10.75-16.71Zm-19.32-12.67l4.85-6.94,11.87,17.6-16.72-10.66Zm-.75-.76l-12.65-17.43,17.5,10.48-4.85,6.95Zm-28.48-18.25l-.08-7.58,12.18,6.29-12.1,1.29Zm-1.05-.21l-27.83-11.43,27.75,3.65,.08,7.78Zm-55.05-12.77l4.43-3.8,14.69,3.61-19.12,.19Zm-24.2,9.08l8.62-9.28,11.91,1.07-20.53,8.21Zm-2.23,.85l-13.05,1.19,21.42-10.21-8.38,9.02Zm-35.88,14.99l1.44-3.23,11.97-5.95-13.42,9.18Zm-15.72,25.31l-.87-8.44,13.03-12.43-12.16,20.88Zm-.9,1.49l-10.8,12.24,9.95-20.49,.85,8.24Zm-16.09,38.27l-6.9,1.28,9.11-20.68-2.21,19.39Zm-.23,1.11l-6.6,26.57-.42-25.27,7.02-1.31Zm5.83,66.15l-7.84-6.45-3.75-24.18,11.59,30.63Zm10.99,22.35l-5.01-1.65-3.35-14.99,8.36,16.64Zm21.4,20.63l-16.63-9.05-2.67-8.98,19.3,18.03Zm3.03,2.85l7.2,9.18-22.01-17.24,14.82,8.06Zm2.69,1.73l22.9,14.77-14.99-4.68-7.91-10.09Zm42.01,13.16l17.8,9.31-30.94-6.1,13.14-3.21Zm21.36-3.54l19.92,10.36-19.51,3.1-.41-13.46Zm52.88-.48l-8.09,6.98-18.2,2.83,26.29-9.8Zm14.95-10.46l.67,4.35-10.45,3.24,9.78-7.59Zm27.13-28l-10.75,19.1-13.68,6.29,24.44-25.39Zm3-3.18l7.2-13.3-7.7,18.24,.5-4.94Zm15.22-40.99l2.72-3.76-4.37,14.37,1.65-10.61Zm2.61-28.34v-.03l-.04-.28,.27-3.56,.28,9.22-.51-5.35Zm-.72-5.24l-2.72-19.7,3.37,11.18-.65,8.52Zm-8.09-30.73l-4.96-11.25,6.95,13.11-1.98-1.86Zm-14.97-23.23l-9.92-14.7,12.65,13.33-2.73,1.37Zm-33.12-31.79l.66-.48,7.62,5.44-8.29-4.96Zm-1-.57l-5.15-2.66,5.73,2.25-.57,.41Zm-43.51-11.24l9.66-1.99,14.53,5.17-24.19-3.18Zm-3.15-.43l-13.15-3.23,22.05,1.4-8.9,1.83Zm-24.91,.24l-10.26-.92,14.35-2.59-4.09,3.51Zm-36.2,9.16l5.87-4.4,9.46-2.91-15.33,7.31Zm-4.82,2.3l-5.09,2.53,7.83-4.58-2.74,2.05Zm-21.36,14.64l-6.04,5.77,6.9-7.7-.87,1.93Zm-28.29,40.69l-2.68,1,10.43-16.94-7.75,15.94Zm-3.5,2.42l2.9-1.07-7.33,16.64,4.43-15.56Zm-7.21,43.17l.15,9.26-.53,1.68,.38-10.94Zm.5,11.63l2.64,17.02-3.64-13.89,1-3.13Zm13.78,35.21l3.39,15.19-10.82-21.31,7.43,6.12Zm10.89,21.71l2.35,7.92-7-9.45,4.65,1.53Zm52.61,40.77l.98,1.57-10.29-4.47,9.3,2.9Zm2.64,2.23l-1.21-1.93,22.39,4.41-21.18-2.49Zm54.85,1.89l-2.35,2.67-12.29-.34,14.64-2.33Zm1.63-.26l14.65-2.27-16.83,4.74,2.18-2.46Zm33.86-12.65l8.59-2.66-15.15,8.32,6.56-5.66Zm13.77-5.7l-.67-4.36,12.56-5.77-11.88,10.14Zm27.2-32.6l-.59,5.86-8.26,9.85,8.85-15.71Zm13.6-24.99l2.12-1.02-9.71,19.01,7.59-17.99Zm2.83-2.53l-2.38,1.15,4.79-15.74-2.41,14.6Z"/><path id="body-outer" class="cls-107" d="M470.97,166.35c-10.46-25.12-31.64-52.25-48.27-60.82,13.54,26.5,21.37,53.09,24.36,72.93,0-.06,.01,.05,.04,.23,.01,.09,.03,.17,.04,.26,22.7,61.47,10.33,123.98-7.49,162.17-27.57,59.1-94.32,119.67-198.81,116.71-112.89-3.19-212.34-86.85-230.9-196.43-3.38-17.28,0-26.05,1.7-40.08-2.07,10.82-2.86,13.94-3.9,33.16,0,.41-.02,.82-.02,1.23,0,132.71,107.72,240.29,240.6,240.29,117.1,.05,217.23-84.23,237.16-199.63,.41-3.08,.73-6.17,1.09-9.27,4.78-41.21-.53-84.52-15.61-120.74Z"/><path id="body-outer-shadow-overlay" class="cls-35" d="M470.97,166.35c-10.46-25.12-31.64-52.25-48.27-60.82,13.54,26.5,21.37,53.09,24.36,72.93,0-.06,.01,.05,.04,.23,.01,.09,.03,.17,.04,.26,22.7,61.47,10.33,123.98-7.49,162.17-27.57,59.1-94.32,119.67-198.81,116.71-112.89-3.19-212.34-86.85-230.9-196.43-3.38-17.28,0-26.05,1.7-40.08-2.07,10.82-2.86,13.94-3.9,33.16,0,.41-.02,.82-.02,1.23,0,132.71,107.72,240.29,240.6,240.29,117.1,.05,217.23-84.23,237.16-199.63,.41-3.08,.73-6.17,1.09-9.27,4.78-41.21-.53-84.52-15.61-120.74Z"/><path id="body-center" class="cls-32" d="M9.95,261.41c18.56,109.58,118.01,193.24,230.9,196.43,104.48,2.95,171.24-57.62,198.81-116.71,17.82-38.2,30.19-100.7,7.49-162.17v-.03l-.04-.23c-.02-.18-.04-.28-.04-.23,0,.04,.02,.14,.05,.4,8.53,55.66-19.81,109.58-64.13,146.04-.08,.19-.13,.31-.13,.31-86.35,70.22-168.97,42.37-185.7,30.97-1.17-.56-2.34-1.15-3.5-1.74-50.34-24.03-71.14-69.84-66.68-109.12-42.51,0-57-35.81-57-35.81,0,0,38.16-27.18,88.46-3.54,46.58,21.89,90.33,3.54,90.34,3.54-.09-1.95-41.96-18.59-58.29-34.65-8.72-8.59-12.87-12.72-16.53-15.83-1.99-1.68-4.07-3.25-6.23-4.7-1.65-1.12-3.31-2.22-4.99-3.3-17.55-11.39-52.45-10.76-53.6-10.74h-.11c-9.54-12.07-8.86-51.87-8.32-60.18-.11-.52-7.12,3.63-8.03,4.25-8.42,6-16.29,12.74-23.52,20.13-8.23,8.33-15.74,17.33-22.47,26.91,0,.01,0,.02-.01,.04,0-.01,0-.02,.01-.04-15.47,21.89-26.44,46.64-32.28,72.8-.12,.53-8.66,37.85-4.45,57.2Z"/><path id="tail-right" class="cls-132" d="M333.21,166.58c8.78,8.61,16.3,18.41,22.34,29.11,1.33,.99,2.56,1.99,3.61,2.95,54.54,50.2,25.97,121.2,23.83,126.26,44.31-36.46,72.66-90.38,64.13-146.04-27.21-67.73-73.34-95.04-111.01-154.51-1.9-3.01-3.81-6.02-5.67-9.2-.95-1.62-1.83-3.28-2.65-4.97-1.56-3.02-2.77-6.21-3.59-9.51,.01-.32-.22-.6-.55-.64-.15-.04-.3-.04-.45,0-.03,.01-.08,.05-.12,.06-.05,.02-.12,.07-.18,.1-9.31,4.43-64.48,91.69,10.31,166.38h0Z"/><path id="tail-left" class="cls-4" d="M240.65,133.64l31.85,2.03,19.35,6.88,16.12,6.33,18.57,13.26,17.49,18.44,6.08,11.47c.82,.5,2.5,1.59,3.93,2.56,.52,.37,1,.74,1.5,1.1-6.04-10.71-13.56-20.51-22.34-29.11C258.42,91.89,313.6,4.63,322.9,.19c.03-.04,.08-.12,.1-.14-60.44,35.36-80.94,100.76-82.83,133.48v.18l.48-.08Z"/><path id="ear" class="cls-63" d="M162.74,151.03c1.68,1.08,3.34,2.18,4.99,3.3-5.48-19.16-5.72-39.45-.68-58.73-24.72,11.24-43.94,29.01-57.92,44.7,1.16-.03,36.06-.66,53.6,10.73Z"/><path id="tufts" class="cls-6" d="M140.32,277.44s11.11-41.34,79.53-41.34c7.4,0,28.54-20.61,28.93-26.59,0,0-43.75,18.35-90.33-3.54-50.3-23.64-88.45,3.54-88.45,3.54,0,0,14.5,35.81,57,35.81-4.45,39.28,16.34,85.09,66.68,109.12,1.13,.54,2.19,1.12,3.34,1.64-29.4-15.17-53.66-43.83-56.7-78.64Z"/><path id="tail-flame-small" class="cls-29" d="M359.16,198.65c-1.05-.97-2.29-1.96-3.61-2.95-.49-.37-.97-.73-1.5-1.1-12.85-9.01-35.85-17.92-58.01-14.07,86.54,43.21,63.31,192.02-56.61,186.4-10.68-.43-21.23-2.47-31.31-6.03-2.38-.89-4.74-1.86-7.07-2.89-1.36-.62-2.71-1.24-4.05-1.94,.05,.03,.11,.07,.16,.1,16.73,11.4,99.35,39.26,185.7-30.97,0,0,.05-.12,.13-.31,2.14-5.05,30.71-76.05-23.83-126.25h0Z"/><path id="highlight-overlay" class="cls-129" d="M470.95,166.34c-10.46-25.12-31.64-52.25-48.27-60.82,13.54,26.5,21.37,53.09,24.36,72.93,0,.04,.02,.14,.05,.4-27.2-67.73-73.34-95.04-111.01-154.51-1.9-3.01-3.81-6.02-5.67-9.2-.95-1.62-1.83-3.28-2.65-4.97-1.56-3.02-2.77-6.2-3.59-9.5,.01-.32-.23-.6-.55-.64-.15-.04-.3-.04-.45,0-.03,.01-.08,.05-.12,.06-.05,.02-.12,.07-.18,.1,.03-.04,.08-.12,.1-.14-60.44,35.36-80.93,100.95-82.82,133.68l.49-.09,31.85,2.03,17.93,6.38,17.54,6.83,18.57,13.26,17.47,18.43s6.01,11.29,6.1,11.48c-13.94-8.29-34.21-14.98-54.1-11.52,86.54,43.21,63.31,192.02-56.61,186.4-10.68-.44-21.24-2.47-31.32-6.04-2.38-.89-4.74-1.86-7.07-2.89-1.36-.62-2.71-1.24-4.05-1.94,.05,.03,.11,.07,.16,.11-1.17-.56-2.34-1.15-3.5-1.74,1.12,.54,2.18,1.12,3.34,1.64-29.38-15.17-53.65-43.83-56.68-78.64,0,0,11.11-41.33,79.52-41.33,7.4,0,28.54-20.61,28.94-26.59-.09-1.95-41.97-18.59-58.29-34.65-8.72-8.59-12.87-12.72-16.53-15.83-1.99-1.68-4.07-3.25-6.23-4.7-5.48-19.16-5.72-39.45-.68-58.73-24.72,11.24-43.94,29.01-57.92,44.7h-.11c-9.54-12.07-8.86-51.87-8.32-60.18-.11-.52-7.11,3.63-8.03,4.25-8.42,6-16.28,12.73-23.51,20.12-8.22,8.33-15.74,17.33-22.47,26.91,0,.01,0,.02-.01,.04,0-.01,0-.03,.01-.04-15.47,21.89-26.44,46.64-32.28,72.8-.11,.52-.21,1.06-.33,1.59-.45,2.12-2.49,12.85-2.77,15.16-.02,.18,.02-.18,0,0-1.86,11.09-3.04,22.29-3.55,33.53,0,.41-.03,.82-.03,1.23,0,132.71,107.72,240.28,240.6,240.28,117.1,.05,217.23-84.23,237.16-199.62,.41-3.08,.73-6.17,1.09-9.27,4.78-41.21-.53-84.52-15.61-120.74h0Zm-23.87,12.34c.01,.09,.03,.17,.04,.26v-.03c-.02-.08-.03-.16-.04-.23Z"/><path id="line-chin" class="cls-143" d="M248.78,209.51s-1.02,.43-2.9,1.07c-4.7,7.94-21.41,23.1-27.8,23.07-68.42-.3-79.7,40.59-79.7,40.59,1.25,13.97,5.84,27.44,13.4,39.26-6.39-11.05-10.3-23.36-11.46-36.07,0,0,11.11-41.33,79.52-41.33,7.4,0,28.54-20.61,28.93-26.59h0Z"/><path id="line-tail-right" class="cls-96" d="M447.15,178.95v-.02c-.02-.08-.03-.16-.04-.23,0-.08-.02-.15-.03-.23,.01,.13,.03,.27,.05,.4-1.61-4.01-3.34-7.98-5.17-11.9-.61-1.31-1.27-2.54-1.9-3.83-1.2-2.46-2.4-4.93-3.66-7.29-.77-1.46-1.59-2.84-2.38-4.25-1.16-2.08-2.32-4.16-3.52-6.17-.88-1.46-1.79-2.86-2.68-4.29-1.17-1.86-2.33-3.73-3.53-5.53-.95-1.43-1.92-2.81-2.89-4.21-1.19-1.72-2.39-3.45-3.6-5.13-1.01-1.39-2.03-2.74-3.05-4.1-1.21-1.62-2.43-3.23-3.67-4.82-1.06-1.36-2.13-2.7-3.2-4.03-1.24-1.55-2.49-3.09-3.75-4.62-1.1-1.33-2.2-2.65-3.31-3.96-.6-.71-1.2-1.45-1.8-2.16,.26,.31,.51,.63,.77,.94-20.85-24.59-43.47-47.25-63.67-79.15-1.91-3.01-3.81-6.02-5.67-9.2-.95-1.62-1.83-3.28-2.65-4.97-1.36-2.7-2.47-5.53-3.31-8.43-.04-.15-.12-.39-.14-.51-.08-.32-.13-.56-.13-.56,.01-.32-.23-.6-.55-.64-.15-.04-.3-.04-.45,0-.03,.01-.08,.05-.12,.07s-.12,.07-.17,.09c-.53,.3-1.02,.66-1.46,1.07-.12,.1-.23,.21-.35,.31-.67,.63-1.31,1.3-1.9,2.01-.02,.03-.04,.04-.07,.07,0,0,.01,0,.02-.01-14.42,16.94-51.23,90.58,8.1,156.63-55.54-65.35-20.54-135.96-5.33-154.46,.81,2.49,1.8,4.92,2.96,7.27,.82,1.69,1.7,3.35,2.65,4.97,1.86,3.18,3.76,6.2,5.67,9.2,37.67,59.47,83.81,86.78,111.01,154.51-.02-.13-.03-.27-.05-.4,.02,.07,.03,.15,.03,.23,.01,.08,.02,.15,.03,.23v.02c22.71,61.47,10.34,123.97-7.48,162.17-9.57,20.29-22.49,38.81-38.22,54.8,17.04-16.63,30.96-36.17,41.12-57.7,17.82-38.2,30.19-100.7,7.49-162.18h0Z"/><path id="line-tail-left" class="cls-31" d="M322.9,.19s.08-.12,.1-.14c-54.45,31.85-76.48,88.07-81.69,122.84,5.99-32.12,26.57-81.17,72.71-112.14,3.8-6,7.14-9.72,8.88-10.56Z"/><path id="line-tail-flame-small" class="cls-108" d="M382.86,325.22s.05-.12,.13-.31c2.13-5.05,30.71-76.06-23.83-126.26-1.05-.97-2.29-1.96-3.61-2.95-.49-.37-.97-.73-1.5-1.1-12.42-8.71-34.32-17.32-55.78-14.41h-.05c-.73,.11-1.46,.22-2.19,.34,85.57,42.73,63.81,188.67-52.6,186.53,.32,.02,.63,.04,.95,.05,118.01,4.62,141.26-140.09,59.27-185.46,17.77-.17,34.95,6.31,45.57,13.16,.54,.35,1.03,.69,1.54,1.04,1.36,.94,2.64,1.88,3.73,2.81,56.47,48.03,30.7,120.09,28.76,125.23-.04,.11-.08,.21-.12,.32"/><path id="line-tufts" class="cls-147" d="M159.09,208.37c39.38,17.06,75.93,6.22,87,2.14-10.2,3.52-47.89,14.14-87.64-4.54-45.22-21.25-80.62-1.44-87.32,2.78h0l-.32,.2h0l-.26,.17h0l-.2,.13h0l-.13,.08h0l-.09,.06h0l.12,.26h0l.14,.31v.06l.21,.45h0c.34,.72,.86,1.75,1.58,3h0c5.34,9.45,21.43,31.63,54.89,31.63-4.32,38.11,15.12,82.35,62.24,106.9-45-26-64-73-58.7-110.49-34.76-.92-50.31-21.76-54.75-30.59,12.64-6.7,44.73-19.23,83.23-2.55Z"/><path id="line-ear" class="cls-120" d="M167.69,154.2c-.38-.22-.77-.45-1.18-.68,.42,.28,.82,.55,1.21,.82-.01-.04-.03-.09-.04-.13h0Zm-.25-.88c-5.2-18.87-5.34-38.78-.39-57.71-23.43,10.66-41.92,27.18-55.68,42.23,13.11-12.77,30.09-26.47,50.78-35.86-1.28,9.82-2.38,29.93,5.3,51.34h0Z"/><path id="line-body-outer" class="cls-69" d="M15.75,286.59c-.07-.23-.13-.46-.19-.69-2.33-8.05-4.21-16.23-5.61-24.5-1.84-8.43-1.25-20.27,0-30.99-.93,5.57-1.51,11.22-2.2,24.06,0,.41-.02,.82-.02,1.23,0,105.02,67.47,194.29,161.47,226.97C87.71,451.47,27.35,376.79,15.75,286.59Z"/><path id="line-body-head" class="cls-55" d="M13.83,262.37c-4.21-19.36,4.33-56.68,4.45-57.2,5.84-26.16,16.81-50.91,32.28-72.8v.04s0-.02,0-.04c6.73-9.58,14.24-18.58,22.47-26.91,7.23-7.39,15.1-14.12,23.51-20.12,.33-.22,.67-.43,1.01-.63-.08,18.28,.95,49.12,9.42,59.24h.11c1.16-.06,36.18-1.6,54.09,9.32,1.71,1.04,3.41,2.09,5.09,3.16,2.21,1.39,4.34,2.91,6.38,4.53,3.76,3.01,8.03,7.04,17.01,15.39,13,12.09,41.36,24.12,53.6,29.85-11.93-6.01-40.08-18.85-52.77-31.34-8.72-8.59-12.87-12.72-16.53-15.83-1.99-1.68-4.07-3.25-6.23-4.7-1.65-1.12-3.31-2.22-4.99-3.3-17.55-11.39-52.45-10.76-53.6-10.74h-.11c-8.72-11.03-8.9-45.21-8.46-57.36,.02-.47,.04-.9,.05-1.3l.02-.43c0-.12,.01-.24,.02-.36,.01-.26,.03-.51,.04-.73,0-.03-.04-.04-.1-.04-.02,0-.05,0-.07,.01-.05,0-.1,.02-.15,.03-.04,.01-.09,.03-.13,.05-.13,.05-.26,.1-.39,.16l-.23,.11c-.17,.08-.33,.16-.5,.24l-.3,.15-.25,.13-.36,.19-.2,.11c-2.12,1.14-4.81,2.75-5.36,3.12-8.42,6-16.29,12.73-23.52,20.12-8.23,8.33-15.74,17.33-22.47,26.91,0,.01,0,.02-.01,.04,0-.01,0-.02,.01-.04-15.47,21.89-26.44,46.64-32.28,72.8-.12,.52-8.66,37.84-4.45,57.2,15.8,93.25,90.18,167.72,181.56,189.81C101.91,427.98,29.4,354.3,13.83,262.37h0Z"/><path id="line-body-tail" class="cls-152" d="M470.97,166.35c-9.23-22.17-26.8-45.88-42.23-57.05l-.42-.3c-.48-.34-.95-.67-1.43-.98-.18-.12-.36-.24-.54-.36-.45-.29-.9-.57-1.34-.83-.17-.1-.35-.21-.52-.31-.59-.34-1.18-.67-1.79-.99,.65,1.27,1.27,2.54,1.9,3.82,.39,.79,.77,1.58,1.15,2.37,11.67,24.42,18.56,48.45,21.32,66.75,0,.04,.02,.14,.05,.4,8.53,55.66-19.81,109.58-64.13,146.04-.08,.19-.13,.31-.13,.31-55.08,44.8-108.64,49.68-144.55,44.38,35.79,6.68,92.23,3.87,150.37-43.41l.13-.31c44.31-36.46,72.66-90.38,64.13-146.04-.02-.13-.03-.27-.05-.4-2.45-16.24-8.16-37.01-17.57-58.54,10.54,11.16,19.4,23.79,26.32,37.49,17.05,34.76,24.74,77.04,22.23,117.82-.19,3.07-.34,6.13-.58,9.17-13.07,112.5-106.97,202.84-225.78,209.5-15.86,.89-31.77,.25-47.5-1.93,12.67,2.03,25.49,3.05,38.33,3.05,119,0,217.81-86.29,237.16-199.63,.41-3.08,.73-6.17,1.09-9.27,4.78-41.21-.53-84.52-15.61-120.74Zm-23.83,12.6v-.03l-.04-.23c.01,.09,.03,.17,.04,.26Z"/></svg>