<?xml version="1.0" encoding="utf-8"?>
<svg version="1.1" id="Layer_1" xmlns="http://www.w3.org/2000/svg" xmlns:xlink="http://www.w3.org/1999/xlink" x="0px" y="0px"
	 viewBox="0 0 16 16" style="enable-background:new 0 0 16 16;" xml:space="preserve">
<style type="text/css">
	.st0{fill:url(#SVGID_1_);}
</style>
<radialGradient id="SVGID_1_" cx="-890.8773" cy="515.7184" r="0.9" gradientTransform="matrix(16.004 0 0 -16.0028 14268.7783 8254.5488)" gradientUnits="userSpaceOnUse">
	<stop  offset="0" style="stop-color:#AAF2FF"/>
	<stop  offset="9.999999e-02" style="stop-color:#80EBFF"/>
	<stop  offset="0.2" style="stop-color:#0DF"/>
	<stop  offset="0.3" style="stop-color:#00BBFF"/>
	<stop  offset="0.4" style="stop-color:#00A1F1"/>
	<stop  offset="0.6" style="stop-color:#0093F1"/>
	<stop  offset="0.8" style="stop-color:#0086F1"/>
	<stop  offset="0.9" style="stop-color:#0078F1"/>
	<stop  offset="1" style="stop-color:#0050EC"/>
</radialGradient>
<path class="st0" d="M15.4,5.4c-0.3-0.8-0.9-1.5-1.6-2c0.4,0.7,0.7,1.5,0.8,2.4v0c-0.9-2.2-2.4-3.1-3.7-5l-0.2-0.3
	c0-0.1-0.1-0.1-0.1-0.2c-0.1-0.1-0.1-0.2-0.1-0.3c0,0,0,0,0,0c0,0,0,0,0,0h0C8.9,0.9,7.9,2.5,7.7,4.3c0.1,0,0.2,0,0.3,0
	c1.4,0,2.8,0.7,3.5,2C11,5.9,10.3,5.7,9.6,5.8c1.6,0.8,2.2,2.7,1.4,4.3C10.3,11.3,9,12,7.7,11.8c-0.4,0-0.7-0.1-1-0.2
	c-0.1,0-0.2-0.1-0.2-0.1c0,0-0.1,0-0.1-0.1c-1-0.5-1.7-1.4-1.9-2.5c0,0,0.4-1.3,2.6-1.3c0.4-0.2,0.8-0.5,1-0.9
	C7.3,6.4,6.7,6.1,6.1,5.6C5.8,5.4,5.7,5.2,5.5,5.1C5.5,5.1,5.4,5,5.3,5c-0.2-0.6-0.2-1.3,0-1.9C4.6,3.4,3.9,3.9,3.4,4.5
	C3.1,3.9,3,3.2,3.1,2.6C3,2.6,2.9,2.7,2.8,2.7C2.6,2.9,2.3,3.1,2,3.4C1.8,3.6,1.5,3.9,1.3,4.2C0.8,4.9,0.4,5.7,0.2,6.6
	c0,0-0.1,0.3-0.1,0.7l0,0.2c0,0.1,0,0.2,0,0.4v0C0,8,0,8.1,0,8.2v0c0.1,4.4,3.7,7.8,8,7.8c3.8,0,7.2-2.7,7.9-6.4l0-0.3
	C16.1,7.9,15.9,6.6,15.4,5.4z"/>
</svg>
